PathFileType	4	(X/Y/Z)	c:/Users/goper/Files/vsCode/490R/osim_files/C03/C03_Static.trc
DataRate	CameraRate	NumFrames	NumMarkers	Units                	OrigDataRate	OrigDataStartFrame	OrigNumFrames
250.00	250.00	5	36	mm	250.0	385	1538
                Frame#	Time	LPSIS			LASIS			LTH1			LTH2			LTH3			LTH4			LLFE			LMFE			LSH1			LSH2			LSH3			LSH4			LLMAL			LMMAL			LCAL			LMTP5			LTOE			LMTP1			RPSIS			RASIS			RTH1			RTH2			RTH3			RTH4			RLFE			RMFE			RSH1			RSH2			RSH3			RSH4			RLMAL			RMMAL			RCAL			RMTP1			RTOE			RMTP5		
		X1	Y1	Z1	X2	Y2	Z2	X3	Y3	Z3	X4	Y4	Z4	X5	Y5	Z5	X6	Y6	Z6	X7	Y7	Z7	X8	Y8	Z8	X9	Y9	Z9	X10	Y10	Z10	X11	Y11	Z11	X12	Y12	Z12	X13	Y13	Z13	X14	Y14	Z14	X15	Y15	Z15	X16	Y16	Z16	X17	Y17	Z17	X18	Y18	Z18	X19	Y19	Z19	X20	Y20	Z20	X21	Y21	Z21	X22	Y22	Z22	X23	Y23	Z23	X24	Y24	Z24	X25	Y25	Z25	X26	Y26	Z26	X27	Y27	Z27	X28	Y28	Z28	X29	Y29	Z29	X30	Y30	Z30	X31	Y31	Z31	X32	Y32	Z32	X33	Y33	Z33	X34	Y34	Z34	X35	Y35	Z35	X36	Y36	Z36

385	1.53600	-380.25983	1037.09460	368.15604	-196.20380	971.45026	337.96857	-345.47662	644.49805	281.67209	-345.98764	582.49719	285.21884	-269.74466	638.51355	283.92648	-279.56180	577.93378	287.66034	-329.16476	489.50900	291.94949	-334.91422	479.46329	404.35724	-401.42365	312.16202	279.28760	-396.76663	265.94934	281.44473	-340.97040	315.57483	272.61096	-344.76761	267.73962	274.88953	-352.78189	99.91669	295.41864	-333.38916	109.40028	374.16711	-419.41629	64.11131	330.55011	-219.12856	50.43002	269.31793	-187.49849	66.49773	322.88889	-209.30260	54.55832	363.27081	-384.59445	1030.24463	477.62582	-212.89456	989.35333	547.63055	-361.05078	619.73462	574.10443	-365.67276	557.97479	564.86688	-301.79431	617.68262	599.25037	-295.42694	556.22852	596.58948	-304.63242	486.78848	583.94952	-307.22815	494.07043	469.85114	-409.79797	311.14340	596.74896	-409.58240	265.05063	597.08228	-350.70505	303.69171	615.16248	-359.29840	261.38391	615.47797	-374.92920	102.50451	602.09216	-353.61493	101.26505	523.18542	-441.59274	64.29682	556.92560	-233.71773	41.49616	542.37244	-210.62943	66.81621	589.38690	-270.84543	38.47029	646.54303
386	1.54000	-380.30084	1037.11023	368.12650	-196.24260	971.44690	337.97668	-345.48959	644.49945	281.65460	-346.00839	582.50885	285.19781	-269.73624	638.51489	283.93094	-279.55118	577.92291	287.65384	-329.18192	489.51218	291.95450	-334.91245	479.45151	404.34967	-401.42050	312.17081	279.25916	-396.77606	265.94232	281.42432	-340.95331	315.59131	272.60406	-344.80624	267.67117	274.85690	-352.76215	99.90934	295.40717	-333.42093	109.39877	374.17029	-419.43845	64.12892	330.54715	-219.15047	50.42664	269.31982	-187.51804	66.50968	322.89066	-209.31001	54.56672	363.27444	-384.67615	1030.27795	477.58438	-212.98199	989.33807	547.64868	-361.17514	619.77112	574.09296	-365.87061	558.01984	564.85529	-301.90097	617.69458	599.25183	-296.07501	556.09851	596.40747	-304.78320	486.80051	583.95563	-307.35468	494.08640	469.84299	-409.89401	311.14551	596.73547	-409.67215	265.05365	597.09094	-350.81317	303.68860	615.15735	-359.39319	261.38525	615.49109	-374.95325	102.50835	602.10034	-353.62152	101.26644	523.18835	-441.62704	64.29961	556.92535	-233.70540	41.50329	542.38409	-210.21622	67.05839	589.14984	-270.85486	38.47598	646.55316
387	1.54400	-380.32919	1037.14551	368.09341	-196.25119	971.44153	338.00165	-345.49295	644.50543	281.63788	-346.02179	582.51837	285.18863	-269.75952	638.51239	283.93439	-279.55997	577.92749	287.65433	-329.18420	489.51398	291.95096	-334.94955	479.45123	404.33881	-401.42255	312.15631	279.27188	-396.75424	265.93890	281.42026	-340.94250	315.58414	272.60577	-344.80276	267.69141	274.84579	-352.75690	99.90801	295.40509	-333.43573	109.41114	374.16971	-419.43845	64.13016	330.54700	-219.14265	50.45114	269.32492	-187.53087	66.51781	322.89871	-209.30714	54.58238	363.27582	-384.71854	1030.29651	477.54703	-213.04185	989.34119	547.64581	-361.29996	619.80756	574.09924	-366.01306	558.06158	564.83997	-302.08084	617.68811	599.25928	-296.20746	556.10681	596.40234	-304.89230	486.82779	583.95807	-307.46600	494.12408	469.83005	-409.98575	311.15759	596.73755	-409.77731	265.05902	597.07965	-350.90729	303.69388	615.15112	-359.45032	261.39618	615.49286	-374.95129	102.51242	602.09833	-353.63052	101.26762	523.19580	-441.59000	64.36923	556.87250	-233.71814	41.52473	542.38538	-210.21907	67.07678	589.14038	-270.86453	38.47822	646.55157
388	1.54800	-380.35788	1037.15259	368.07031	-196.27246	971.44574	337.99536	-345.52759	644.49127	281.64658	-346.04700	582.51019	285.20419	-269.77307	638.52264	283.90070	-279.54111	577.95996	287.66663	-329.17856	489.52032	291.94174	-334.96448	479.45029	404.31375	-401.42606	312.15399	279.25018	-396.76709	265.92911	281.42542	-340.91043	315.60358	272.58536	-344.78369	267.69141	274.83691	-352.74905	99.91241	295.40158	-333.41580	109.40018	374.16107	-419.42285	64.12727	330.52386	-219.10483	50.45655	269.31519	-187.49258	66.53596	322.89194	-209.27608	54.60419	363.25342	-384.72318	1030.31250	477.51294	-213.06175	989.34137	547.63068	-361.53845	619.81842	573.91095	-366.10156	558.06335	564.82440	-302.13882	617.70367	599.23419	-296.33490	556.12054	596.36194	-304.99677	486.83145	583.94257	-307.56149	494.15588	469.82861	-410.04980	311.14795	596.71600	-409.81555	265.06122	597.06464	-350.97006	303.70230	615.14703	-359.48303	261.41052	615.47754	-374.91965	102.50130	602.08441	-353.61551	101.28020	523.19086	-441.61990	64.30933	556.93225	-233.66069	41.56573	542.37085	-210.61832	66.85158	589.38190	-270.82684	38.48949	646.54303
389	1.55200	-380.38602	1037.18030	368.04431	-196.28348	971.45319	338.02319	-345.57391	644.50525	281.65433	-346.05472	582.50995	285.21606	-269.76389	638.50781	283.94012	-279.55948	577.93713	287.68115	-329.18549	489.50891	291.94321	-334.97510	479.43506	404.31464	-401.43314	312.16122	279.24933	-396.80963	265.91251	281.43188	-340.92056	315.59479	272.58740	-344.78586	267.68918	274.85687	-352.75021	99.90709	295.39886	-333.38437	109.39761	374.16748	-419.44263	64.14776	330.53674	-219.08046	50.44397	269.32858	-187.44678	66.55457	322.89304	-209.23524	54.59821	363.26944	-384.70639	1030.30786	477.49805	-213.07379	989.31622	547.64380	-361.60358	619.79572	573.91370	-366.17172	558.04224	564.82300	-302.20416	617.68658	599.21265	-296.40839	556.09161	596.36884	-305.08353	486.83569	583.93994	-307.69629	494.15656	469.84589	-410.08969	311.10641	596.72308	-409.85242	265.02795	597.07697	-350.98352	303.70889	615.12433	-359.50424	261.39819	615.46777	-374.88821	102.49409	602.09338	-353.62195	101.26422	523.20190	-441.58417	64.29932	556.93396	-233.66666	41.55205	542.38263	-210.63185	66.83584	589.39490	-270.78610	38.48824	646.53925
